<svg width="16" height="14" viewBox="0 0 16 14" fill="none" xmlns="http://www.w3.org/2000/svg">
<path d="M10.5804 8.07966C10.5804 9.50256 9.4229 10.6601 8 10.6601C6.5771 10.6601 5.42003 9.50256 5.42003 8.07966C5.42003 6.65676 6.5771 5.49925 8 5.49925C9.4229 5.49925 10.5804 6.6572 10.5804 8.07966ZM16 4.4156V11.7446C16 12.7217 15.2078 13.5138 14.2308 13.5138H1.76923C0.792171 13.5138 0 12.7217 0 11.7446V4.4156C0 3.43854 0.792171 2.64637 1.76923 2.64637H3.94538V2.03422C3.94538 1.17924 4.63803 0.486145 5.49345 0.486145H10.5066C11.362 0.486145 12.0546 1.17924 12.0546 2.03422V2.64593H14.2308C15.2078 2.64637 16 3.43854 16 4.4156ZM11.9073 8.07966C11.9073 5.92519 10.1545 4.17233 8 4.17233C5.84597 4.17233 4.09311 5.92519 4.09311 8.07966C4.09311 10.2341 5.84597 11.987 8 11.987C10.1545 11.987 11.9073 10.2341 11.9073 8.07966Z" fill="#BEA69E"/>
</svg>
